<?xml version="1.0" encoding="utf-8"?>
<!-- Generator: Adobe Illustrator 16.0.0, SVG Export Plug-In . SVG Version: 6.00 Build 0)  -->
<!DOCTYPE svg PUBLIC "-//W3C//DTD SVG 1.1//EN" "http://www.w3.org/Graphics/SVG/1.1/DTD/svg11.dtd">
<svg version="1.1" id="Layer_1" xmlns="http://www.w3.org/2000/svg" xmlns:xlink="http://www.w3.org/1999/xlink" x="0px" y="0px"
	 width="368.625px" height="334.319px" viewBox="0 0 368.625 334.319" style="enable-background:new 0 0 368.625 334.319;"
	 xml:space="preserve">
<style type="text/css">
<![CDATA[
	.st0{fill:#FFFFFF;stroke:#FFFFFF;stroke-miterlimit:10;}
]]>
</style>
<g>
	<g>
		<path class="st0" d="M14.102,27.866h38.984l55.535,200.828c1.586,5.895,7.024,9.973,13.145,9.973h170.679
			c5.441,0,10.199-3.172,12.469-8.16L367.02,87.705c1.813-4.304,1.359-9.066-1.133-12.918c-2.496-3.855-6.801-6.121-11.336-6.121
			H165.965c-7.477,0-13.598,6.121-13.598,13.602c0,7.477,6.121,13.598,13.598,13.598h167.734l-50.32,115.601H131.965L76.434,10.639
			c-1.586-5.894-7.028-9.973-13.145-9.973H14.102C6.621,0.667,0.5,6.787,0.5,14.269C0.5,21.745,6.621,27.866,14.102,27.866
			L14.102,27.866z M14.102,27.866"/>
	</g>
	<path class="st0" d="M108.848,334.319c17,0,30.824-13.824,30.824-30.824s-13.824-30.828-30.824-30.828S78.02,286.495,78.02,303.495
		S91.848,334.319,108.848,334.319L108.848,334.319z M108.848,334.319"/>
	<path class="st0" d="M301.512,334.319h2.27c8.16-0.68,15.641-4.305,21.078-10.652c5.441-6.121,7.934-14.055,7.48-22.441
		c-1.133-16.773-15.867-29.691-32.867-28.559s-29.691,16.094-28.559,32.867C272.047,321.627,285.422,334.319,301.512,334.319
		L301.512,334.319z M301.512,334.319"/>
</g>
</svg>
