<?xml version="1.0" encoding="utf-8"?>
<!-- Generator: Adobe Illustrator 16.0.0, SVG Export Plug-In . SVG Version: 6.00 Build 0)  -->
<!DOCTYPE svg PUBLIC "-//W3C//DTD SVG 1.1//EN" "http://www.w3.org/Graphics/SVG/1.1/DTD/svg11.dtd">
<svg version="1.1" id="Layer_1" xmlns="http://www.w3.org/2000/svg" xmlns:xlink="http://www.w3.org/1999/xlink" x="0px" y="0px"
	 width="42px" height="39.25px" viewBox="0 0 42 39.25" style="enable-background:new 0 0 42 39.25;" xml:space="preserve">
<style type="text/css">
<![CDATA[
	.st0{fill:none;stroke:#EF603A;stroke-width:2;stroke-miterlimit:10;}
]]>
</style>
<g>
	<g>
		<path class="st0" d="M20.88,7.5C22.498,3.676,26.185,1,30.474,1c5.777,0,9.938,4.945,10.461,10.836c0,0,0.285,1.461-0.336,4.094
			c-0.848,3.586-2.836,6.773-5.52,9.203L20.88,37.801L6.923,25.133c-2.684-2.43-4.672-5.617-5.52-9.203
			c-0.621-2.633-0.34-4.094-0.34-4.094C1.587,5.941,5.751,1,11.528,1C15.817,1,19.268,3.676,20.88,7.5L20.88,7.5z M20.88,7.5"/>
	</g>
</g>
</svg>
