<?xml version="1.0" encoding="utf-8"?>
<!-- Generator: Adobe Illustrator 16.0.0, SVG Export Plug-In . SVG Version: 6.00 Build 0)  -->
<!DOCTYPE svg PUBLIC "-//W3C//DTD SVG 1.1//EN" "http://www.w3.org/Graphics/SVG/1.1/DTD/svg11.dtd">
<svg version="1.1" id="Layer_1" xmlns="http://www.w3.org/2000/svg" xmlns:xlink="http://www.w3.org/1999/xlink" x="0px" y="0px"
	 width="42px" height="39.25px" viewBox="0 0 42 39.25" style="enable-background:new 0 0 42 39.25;" xml:space="preserve">
<style type="text/css">
<![CDATA[
	.st0{fill:none;stroke:#FFFFFF;stroke-width:4;stroke-miterlimit:10;}
]]>
</style>
<g>
	<g>
		<path class="st0" d="M20.482,8.492c1.504-3.556,4.932-6.043,8.919-6.043c5.371,0,9.239,4.597,9.725,10.074
			c0,0,0.266,1.358-0.312,3.806c-0.788,3.334-2.637,6.298-5.132,8.556L20.482,36.663L7.506,24.885
			c-2.495-2.258-4.343-5.222-5.132-8.556c-0.578-2.448-0.316-3.806-0.316-3.806c0.487-5.48,4.358-10.074,9.729-10.074
			C15.775,2.449,18.983,4.937,20.482,8.492L20.482,8.492z M20.482,8.492"/>
	</g>
</g>
</svg>
